<svg id="Component_2_1" data-name="Component 2 – 1" xmlns="http://www.w3.org/2000/svg" width="200" height="200" viewBox="0 0 200 200">
  <g id="_1165923" data-name="1165923" transform="matrix(0.766, 0.643, -0.643, 0.766, 46.937, 110.664)" opacity="0.3">
    <path id="Path_99" data-name="Path 99" d="M68.833,274.322a6.494,6.494,0,0,1-3.668-1.022,9.423,9.423,0,0,0-9.59,0,7.09,7.09,0,0,1-7.334,0,9.417,9.417,0,0,0-9.587,0,7.084,7.084,0,0,1-7.331,0,8.751,8.751,0,0,0-4.793-1.311,8.752,8.752,0,0,0-4.792,1.311,6.475,6.475,0,0,1-3.663,1.022,6.478,6.478,0,0,1-3.663-1.022,8.751,8.751,0,0,0-4.791-1.311A8.751,8.751,0,0,0,4.83,273.3a6.478,6.478,0,0,1-3.663,1.022,1.167,1.167,0,0,0,0,2.333,8.751,8.751,0,0,0,4.791-1.311,6.478,6.478,0,0,1,3.663-1.022,6.478,6.478,0,0,1,3.663,1.022,8.749,8.749,0,0,0,4.791,1.311,8.753,8.753,0,0,0,4.79-1.311,6.471,6.471,0,0,1,3.665-1.022,6.484,6.484,0,0,1,3.665,1.022,9.415,9.415,0,0,0,9.586,0,7.087,7.087,0,0,1,7.332,0,9.419,9.419,0,0,0,9.588,0,7.094,7.094,0,0,1,7.336,0,8.747,8.747,0,0,0,4.795,1.311,1.167,1.167,0,0,0,0-2.333Zm0,0" transform="translate(0 -232.322)" fill="#4a148c"/>
    <path id="Path_100" data-name="Path 100" d="M0,38.5a1.167,1.167,0,0,0,1.167,1.167A8.657,8.657,0,0,0,5.95,38.356a6.535,6.535,0,0,1,3.675-1.022A6.532,6.532,0,0,1,13.3,38.365a8.723,8.723,0,0,0,4.77,1.3,8.788,8.788,0,0,0,4.8-1.314,6.43,6.43,0,0,1,3.657-1.02,6.542,6.542,0,0,1,3.689,1.031,9.41,9.41,0,0,0,9.567-.011,6.426,6.426,0,0,1,3.661-1.02,6.542,6.542,0,0,1,3.689,1.031,9.407,9.407,0,0,0,9.567-.009,6.532,6.532,0,0,1,3.673-1.022c.253,0,.486.009.722.031a6.477,6.477,0,0,1,2.939.992,8.76,8.76,0,0,0,4.8,1.31,1.167,1.167,0,0,0,0-2.333,6.5,6.5,0,0,1-3.67-1.021,10.158,10.158,0,0,0-2.273-.992l7-14.994a1.166,1.166,0,0,0-1.057-1.66H52.5a1.168,1.168,0,0,0-.7.234l-4.355,3.266H39.3L33.756,7.748A1.166,1.166,0,0,0,32.667,7h-14V1.167A1.167,1.167,0,0,0,17.5,0H12.833a1.167,1.167,0,0,0-1.167,1.167V7H9.333A1.167,1.167,0,0,0,8.167,8.167v14h-7A1.166,1.166,0,0,0,.035,23.616L3.383,37a6.522,6.522,0,0,1-2.217.333A1.167,1.167,0,0,0,0,38.5ZM14,2.334h2.333V7H14Zm-3.5,7H31.865L36.8,22.167H10.5ZM47.833,24.5a1.168,1.168,0,0,0,.7-.234L52.889,21H67.005L60.472,35h-.089a8.768,8.768,0,0,0-4.8,1.311,7.094,7.094,0,0,1-7.35-.01,9.406,9.406,0,0,0-9.567.01,7.094,7.094,0,0,1-7.35-.01A8.734,8.734,0,0,0,26.53,35a8.651,8.651,0,0,0-4.783,1.311,6.535,6.535,0,0,1-3.675,1.022,6.527,6.527,0,0,1-3.68-1.032A8.724,8.724,0,0,0,9.625,35c-.276,0-.535.011-.784.028-.078.006-.152.014-.227.021-.167.015-.33.034-.484.056l-.234.036c-.148.026-.291.055-.43.085l-.186.043q-.277.068-.529.152H6.735c-.174.058-.337.117-.494.185l-.165.07c-.1.043-.2.086-.291.132-.064.029-.126.06-.187.09l-.081.04L2.661,24.5Zm0,0" transform="translate(0 0)" fill="#4a148c"/>
    <path id="Path_101" data-name="Path 101" d="M91.5,80A3.5,3.5,0,1,0,95,83.5,3.5,3.5,0,0,0,91.5,80Zm0,4.667A1.167,1.167,0,1,1,92.667,83.5,1.167,1.167,0,0,1,91.5,84.667Zm0,0" transform="translate(-75.167 -68.333)" fill="#4a148c"/>
    <path id="Path_102" data-name="Path 102" d="M163.5,80a3.5,3.5,0,1,0,3.5,3.5A3.5,3.5,0,0,0,163.5,80Zm0,4.667a1.167,1.167,0,1,1,1.167-1.167A1.167,1.167,0,0,1,163.5,84.667Zm0,0" transform="translate(-136.667 -68.333)" fill="#4a148c"/>
  </g>
  <g id="_130262" data-name="130262" transform="matrix(0.819, -0.574, 0.574, 0.819, -32.175, -6.14)" opacity="0.3">
    <path id="Path_105" data-name="Path 105" d="M81.542,275.387a3.516,3.516,0,1,0,3.516,3.516A3.52,3.52,0,0,0,81.542,275.387Zm0,4.474a.958.958,0,1,1,.958-.958A.959.959,0,0,1,81.542,279.861Z" transform="translate(-64.721 -170.767)" fill="#4a148c"/>
    <path id="Path_106" data-name="Path 106" d="M294.774,275.387a3.516,3.516,0,1,0,3.516,3.516A3.52,3.52,0,0,0,294.774,275.387Zm0,4.474a.958.958,0,1,1,.958-.958A.959.959,0,0,1,294.774,279.861Z" transform="translate(-241.594 -170.767)" fill="#4a148c"/>
    <path id="Path_107" data-name="Path 107" d="M68.377,101.967V76.9a7.39,7.39,0,0,0-7.382-7.382h-47.9A11.481,11.481,0,0,0,1.623,80.984v20.983A4.049,4.049,0,0,0,0,105.208v.157a4.054,4.054,0,0,0,4.05,4.05H9.256a7.671,7.671,0,0,0,15.128,0H45.616a7.671,7.671,0,0,0,15.128,0H65.95a4.054,4.054,0,0,0,4.05-4.05v-.157A4.049,4.049,0,0,0,68.377,101.967ZM65.819,88.688h-3.51a.326.326,0,0,1-.326-.326V78.5a.326.326,0,0,1,.326-.326h3.51ZM2.558,105.365v-.157a1.5,1.5,0,0,1,1.492-1.494h6.505a7.63,7.63,0,0,0-1.3,3.143H4.05A1.494,1.494,0,0,1,2.558,105.365Zm14.263,7.886a5.115,5.115,0,1,1,5.115-5.115A5.121,5.121,0,0,1,16.82,113.251Zm28.8-6.394H24.385a7.666,7.666,0,0,0-10.747-5.7H4.181V80.984a8.92,8.92,0,0,1,8.91-8.91h47.9a4.832,4.832,0,0,1,4.651,3.545H62.309A2.887,2.887,0,0,0,59.426,78.5v9.86a2.887,2.887,0,0,0,2.883,2.883h3.51v9.911H56.362a7.666,7.666,0,0,0-10.747,5.7Zm7.564,6.394a5.115,5.115,0,1,1,5.115-5.115A5.121,5.121,0,0,1,53.18,113.251Zm14.263-7.886a1.494,1.494,0,0,1-1.492,1.492H60.744a7.63,7.63,0,0,0-1.3-3.143H65.95a1.5,1.5,0,0,1,1.492,1.494Z" fill="#4a148c"/>
    <path id="Path_108" data-name="Path 108" d="M90.788,118.051v-9.86a2.887,2.887,0,0,0-2.883-2.883H48.528a6.177,6.177,0,0,0-6.17,6.17v6.573a2.887,2.887,0,0,0,2.883,2.883H87.9A2.887,2.887,0,0,0,90.788,118.051ZM67.852,107.866H77.905v10.511H67.852Zm-2.558,10.511H55.24V107.866H65.294Zm-20.378-.326v-6.573a3.616,3.616,0,0,1,3.612-3.612h4.155v10.511H45.241A.326.326,0,0,1,44.916,118.051Zm43.314,0a.326.326,0,0,1-.326.326H80.463V107.866H87.9a.326.326,0,0,1,.326.326Z" transform="translate(-35.135 -29.689)" fill="#4a148c"/>
    <path id="Path_109" data-name="Path 109" d="M363.316,225.441a1.279,1.279,0,0,0,1.279-1.279v-1.137a1.279,1.279,0,0,0-2.558,0v1.137A1.279,1.279,0,0,0,363.316,225.441Z" transform="translate(-300.304 -126.272)" fill="#4a148c"/>
  </g>
  <g id="_1401505" data-name="1401505" transform="translate(138.412 10.191) rotate(25)" opacity="0.3">
    <path id="Path_124" data-name="Path 124" d="M1.055,44.305H24.262V42.2H4.219a1.055,1.055,0,0,1-1.045-.9A33.692,33.692,0,0,1,4.66,27.912c2.07-6.815,7.164-16.52,19.6-24.269V3.165a3.165,3.165,0,1,1,6.329,0V4.05C36.8,23.524,54.345,40.206,54.523,40.372A1.055,1.055,0,0,1,53.8,42.2H30.591v2.11H50.634a1.055,1.055,0,0,1,1,.708l2.842,8.153a7.384,7.384,0,0,1-6.857,10.127H12.725a7.334,7.334,0,0,1-6.84-4.6L.092,45.792a1.055,1.055,0,0,1,.962-1.487Zm4.134-4.22H24.262V6.134C5.245,18.62,4.957,35.956,5.189,40.086Zm46.068,0c-4.22-4.366-14.736-16.091-20.665-30.005V40.086ZM28.481,3.165a1.055,1.055,0,1,0-2.11,0V44.305h2.11Zm2.11,43.25H2.684l1.9,4.22H51.356l-1.472-4.22ZM7.827,57.868a5.249,5.249,0,0,0,4.9,3.316h34.89A5.274,5.274,0,0,0,52.5,53.9l-.4-1.16H5.526Zm0,0" transform="translate(0 0)" fill="#4a148c"/>
    <path id="Path_127" data-name="Path 127" d="M2.092,21.335a1.055,1.055,0,0,1-1.033.844,1,1,0,0,1-.211-.021,1.054,1.054,0,0,1-.828-1.24C2.162,10.211,10.464.776,10.816.381a1.055,1.055,0,1,1,1.576,1.4C12.315,1.874,4.123,11.18,2.092,21.335Zm0,0" transform="translate(8.571 12.633)" fill="#4a148c"/>
  </g>
  <rect id="Rectangle_65" data-name="Rectangle 65" width="200" height="200" fill="none" opacity="0.3"/>
  <g id="_1165951" data-name="1165951" transform="matrix(-0.643, 0.766, -0.766, -0.643, 189.444, 137.601)" opacity="0.3">
    <path id="Path_103" data-name="Path 103" d="M68.833,2.333H1.167A1.167,1.167,0,0,1,1.167,0H68.833a1.167,1.167,0,0,1,0,2.333Zm0,0" transform="translate(0 0)" fill="#4a148c"/>
    <path id="Path_104" data-name="Path 104" d="M16.333,4.667h2.333a4.667,4.667,0,1,1,9.333,0H39.667a4.667,4.667,0,1,1,9.333,0h2.333a4.667,4.667,0,1,1,9.333,0c0,.107-.022.208-.029.313C66.628,6.087,70,10.2,70,16.671,70,30.163,52.009,42,31.5,42H1.167A1.167,1.167,0,0,1,0,40.833v-35A1.167,1.167,0,0,1,1.167,4.667H7a4.667,4.667,0,1,1,9.333,0ZM11.667,24.5H2.333v8.167h9.333Zm-9.333,0h9.333V11.667H2.333ZM14.994,7H14V32.667H25.667V7ZM33.833,32.667a2.8,2.8,0,0,0,2.4-1.356L40.017,24.5H28v8.167ZM23.333,2.333A2.333,2.333,0,0,0,21,4.667h4.667A2.333,2.333,0,0,0,23.333,2.333Zm21,0A2.333,2.333,0,0,0,42,4.667h4.667A2.333,2.333,0,0,0,44.333,2.333ZM47.661,7H28V9.333H64.837A11.646,11.646,0,0,0,57.167,7ZM58.333,4.667a2.333,2.333,0,0,0-4.667,0h3.5c.4,0,.782.019,1.167.04Zm6.9,19.833H56.1a8.937,8.937,0,0,0-7.817,4.618l-1.767,2.949a.531.531,0,0,0,.024.5c.028.048.072.1.117.1H56.689A27.243,27.243,0,0,0,65.231,24.5ZM31.5,39.667A49.207,49.207,0,0,0,52.479,35H46.667a2.47,2.47,0,0,1-2.134-1.256A2.858,2.858,0,0,1,44.5,30.9l1.766-2.948A11.257,11.257,0,0,1,56.1,22.167H66.474a13.734,13.734,0,0,0,1.192-5.5,11.064,11.064,0,0,0-1.05-5.028,1.038,1.038,0,0,1-.117.024H28v10.5H42A1.167,1.167,0,0,1,43.02,23.9l-4.746,8.545A5.126,5.126,0,0,1,33.833,35H2.333v4.667ZM2.333,7v4.667h9.333V7Zm9.333-4.667A2.333,2.333,0,0,0,9.333,4.667H14A2.333,2.333,0,0,0,11.667,2.333Zm0,0" transform="translate(0 2.333)" fill="#4a148c"/>
  </g>
</svg>
